<svg width="208" height="69" viewBox="0 0 208 69" fill="none" xmlns="http://www.w3.org/2000/svg">
<path d="M67.2819 25.8932C68.3834 30.0438 68.6915 34.196 68.2287 38.5426C67.9768 38.362 67.794 38.2462 67.6282 38.1098C60.578 32.313 52.4241 29.123 43.4582 27.861C42.4688 27.7218 41.4649 27.6859 40.4745 27.5522C40.2609 27.5233 39.9552 27.3168 39.8962 27.128C38.4777 22.5921 35.2082 19.9143 30.9767 18.2299C27.0513 16.6673 22.9221 16.173 18.7361 16.055C14.6773 15.9405 10.6443 16.2492 6.63335 16.868C6.41162 16.9022 6.18956 16.9343 5.80623 16.9913C6.00267 16.6644 6.10742 16.4659 6.23407 16.2826C13.6499 5.55028 23.8609 0.224275 36.8907 0.99753C50.9427 1.83144 62.5371 11.1079 66.8734 24.4979C67.0168 24.9407 67.1375 25.3908 67.2819 25.8932Z" fill="url(#paint0_linear_4_14504)"/>
<path d="M53.0242 56.9202C50.3316 57.7597 47.9656 57.253 46.0363 55.2769C43.8422 53.0296 43.5751 50.3738 44.7993 47.3847C44.4629 47.4791 44.2247 47.5192 44.0086 47.611C42.3596 48.3117 40.7205 49.0358 39.0653 49.7211C38.6415 49.8966 38.6343 50.1899 38.6317 50.5553C38.5774 58.1901 45.6302 63.9803 53.1786 62.4931C53.399 62.4497 53.6205 62.4114 53.8608 62.4662C45.9638 67.8832 37.2965 69.7337 27.894 67.9032C15.7692 65.5427 7.58064 56.831 4.46736 49.8861C5.04555 50.0553 5.57051 50.2227 6.10266 50.3627C12.828 52.1312 19.5997 52.0043 26.3967 50.857C30.5166 50.1616 34.4039 48.7765 38.1508 46.9495C40.9762 45.5718 43.8053 44.1757 46.9184 43.5549C51.3152 42.6781 55.6336 42.8392 59.7444 44.8276C61.8599 45.8508 63.4963 47.4128 64.4913 49.5717C64.6215 49.8541 64.6171 50.3115 64.4765 50.5858C63.9742 51.5654 63.3864 52.5011 62.6892 53.3799C62.7795 52.6042 62.9164 51.8298 62.938 51.0522C62.947 50.7287 62.7964 50.3131 62.5713 50.0849C60.9431 48.4334 58.9278 47.4901 56.5202 46.8801C57.7943 49.2819 57.9348 51.5751 56.6737 53.8564C55.8628 55.3235 54.6465 56.3262 53.0242 56.9202Z" fill="url(#paint1_linear_4_14504)"/>
<path d="M52.5755 35.3086C57.9338 36.4572 62.739 38.6357 66.9449 42.0972C67.3853 42.4597 67.5312 42.7892 67.3411 43.3436C66.9973 44.3456 66.7204 45.3707 66.3557 46.5856C66.0832 46.0428 65.9238 45.6946 65.7384 45.3608C64.2193 42.6246 61.8261 40.9107 59.0318 39.7019C53.2538 37.2023 47.3969 37.3577 41.5039 39.2633C38.9459 40.0904 36.5422 41.2534 34.2153 42.5951C25.3382 47.714 15.7938 49.8807 5.58436 48.9462C3.34582 48.7413 3.94865 49.1686 3.11421 47.0578C1.01724 41.7535 0.340557 36.2535 1.03656 30.5881C1.05566 30.4325 1.09245 30.2792 1.13075 30.072C1.24852 30.1354 1.33925 30.1602 1.39607 30.2183C5.02685 33.9273 9.57929 35.7086 14.5888 36.4936C20.5106 37.4216 26.3812 36.8913 32.2122 35.7233C37.651 34.6339 43.1174 34.0707 48.6569 34.6975C49.95 34.8438 51.2316 35.0927 52.5755 35.3086Z" fill="url(#paint2_linear_4_14504)"/>
<path d="M79.8497 33.0848V15.5981H83.7627V29.9054H96.5536V33.0848H79.8497Z" fill="black"/>
<path d="M97.5369 33.0848L105.412 15.5981H111.453L119.328 33.0848H115.072L113.409 29.3918H103.455L101.792 33.0848H97.5369ZM104.874 26.2124H111.991L108.591 18.6552H108.273L104.874 26.2124Z" fill="black"/>
<path d="M121.288 33.0848V15.6471L136.011 15.5981C137.951 15.5981 139.386 16.0058 140.315 16.821C141.261 17.6199 141.734 18.8264 141.734 20.4406C141.734 22.0547 141.196 23.2368 140.119 23.9868C140.837 24.3781 141.367 24.8999 141.709 25.5521C142.052 26.1879 142.223 27.0113 142.223 28.0222C142.223 29.669 141.75 30.9244 140.804 31.7885C139.875 32.6364 138.44 33.0603 136.5 33.0603L121.288 33.0848ZM135.546 18.7286H125.201V22.6417H135.546C137.03 22.6417 137.772 21.9732 137.772 20.6362C137.772 19.3645 137.03 18.7286 135.546 18.7286ZM136.035 25.7722H125.201V29.9298H136.035C137.519 29.9298 138.261 29.2287 138.261 27.8265C138.261 26.457 137.519 25.7722 136.035 25.7722Z" fill="black"/>
<path d="M144.909 33.0848V15.6471L159.632 15.5981C161.572 15.5981 163.007 16.0058 163.936 16.821C164.882 17.6199 165.354 18.8264 165.354 20.4406C165.354 22.0547 164.816 23.2368 163.74 23.9868C164.458 24.3781 164.988 24.8999 165.33 25.5521C165.672 26.1879 165.844 27.0113 165.844 28.0222C165.844 29.669 165.371 30.9244 164.425 31.7885C163.496 32.6364 162.061 33.0603 160.121 33.0603L144.909 33.0848ZM159.167 18.7286H148.822V22.6417H159.167C160.651 22.6417 161.392 21.9732 161.392 20.6362C161.392 19.3645 160.651 18.7286 159.167 18.7286ZM159.656 25.7722H148.822V29.9298H159.656C161.14 29.9298 161.882 29.2287 161.882 27.8265C161.882 26.457 161.14 25.7722 159.656 25.7722Z" fill="black"/>
<path d="M167.062 33.0848L174.937 15.5981H180.978L188.853 33.0848H184.598L182.934 29.3918H172.981L171.318 33.0848H167.062ZM174.399 26.2124H181.516L178.117 18.6552H177.799L174.399 26.2124Z" fill="black"/>
<path d="M194.334 33.0848V26.8483L185.065 15.5981H189.907L196.29 23.5221L202.649 15.5981H207.491L198.271 26.8238V33.0848H194.334Z" fill="black"/>
<path d="M79.8497 54.2807V36.794H94.4993C96.3091 36.794 97.7113 37.2506 98.7058 38.1636C99.7167 39.0767 100.222 40.4626 100.222 42.3213C100.222 44.18 99.7167 45.5659 98.7058 46.4789C97.7113 47.392 96.3091 47.8485 94.4993 47.8485H83.7627V54.2807H79.8497ZM94.0346 39.9734H83.7627V44.6447L94.0346 44.6691C94.752 44.6691 95.2982 44.4898 95.6732 44.1311C96.0645 43.7724 96.2602 43.1691 96.2602 42.3213C96.2602 41.4571 96.0645 40.8539 95.6732 40.5115C95.2982 40.1528 94.752 39.9734 94.0346 39.9734Z" fill="black"/>
<path d="M98.9938 54.2807L106.869 36.794H112.91L120.785 54.2807H116.529L114.866 50.5877H104.912L103.249 54.2807H98.9938ZM106.331 47.4083H113.448L110.048 39.8511H109.73L106.331 47.4083Z" fill="black"/>
<path d="M126.265 54.2807V48.0442L116.996 36.794H121.839L128.222 44.718L134.581 36.794H139.423L130.203 48.0197V54.2807H126.265Z" fill="black"/>
<defs>
<linearGradient id="paint0_linear_4_14504" x1="63.3617" y1="73.6624" x2="-7.26242" y2="6.84441" gradientUnits="userSpaceOnUse">
<stop stop-color="#5960FE"/>
<stop offset="1" stop-color="#8489FE"/>
</linearGradient>
<linearGradient id="paint1_linear_4_14504" x1="63.3617" y1="73.6624" x2="-7.26242" y2="6.84441" gradientUnits="userSpaceOnUse">
<stop stop-color="#5960FE"/>
<stop offset="1" stop-color="#8489FE"/>
</linearGradient>
<linearGradient id="paint2_linear_4_14504" x1="63.3617" y1="73.6624" x2="-7.26242" y2="6.84441" gradientUnits="userSpaceOnUse">
<stop stop-color="#5960FE"/>
<stop offset="1" stop-color="#8489FE"/>
</linearGradient>
</defs>
</svg>
